<svg version="1.0" xmlns="http://www.w3.org/2000/svg"
 width="300.000000pt" height="286.000000pt" viewBox="0 0 300.000000 286.000000"
 preserveAspectRatio="xMidYMid meet">
<metadata>
Created by potrace 1.10, written by Peter Selinger 2001-2011
</metadata>
<g transform="translate(0.000000,286.000000) scale(0.100000,-0.100000)"
fill="#000000" stroke="none">
<path d="M1505 2685 l-60 -54 21 -23 c68 -74 154 -232 203 -371 33 -94 64
-207 59 -213 -2 -2 -28 32 -56 76 -29 43 -80 108 -114 145 l-61 66 -34 -33
c-19 -18 -44 -45 -55 -61 l-19 -27 51 -58 c71 -80 154 -207 216 -331 53 -108
107 -247 102 -263 -7 -20 -198 117 -338 243 -157 140 -318 354 -378 501 -15
37 -32 68 -38 68 -20 0 -138 -47 -141 -57 -4 -11 78 -182 120 -248 17 -27 51
-76 75 -107 24 -32 40 -58 36 -58 -10 0 -179 115 -254 173 -203 157 -376 332
-482 486 -28 42 -54 80 -59 84 -7 9 -138 -62 -139 -74 0 -15 103 -162 173
-245 262 -312 671 -601 1260 -890 l197 -96 0 -599 0 -599 85 0 85 0 0 561 c0
308 4 559 8 557 5 -1 149 -66 320 -143 207 -93 312 -145 312 -155 0 -31 -48
-116 -83 -146 -48 -43 -106 -60 -286 -83 -85 -11 -156 -23 -159 -26 -6 -6 13
-144 21 -151 2 -3 44 0 91 6 48 6 91 8 95 5 5 -2 50 -74 99 -157 50 -84 108
-170 129 -190 44 -43 112 -76 177 -84 l46 -7 0 79 0 79 -48 17 c-60 22 -74 37
-155 177 -62 105 -71 131 -46 131 30 0 126 60 170 107 68 71 105 161 133 319
l5 32 -232 105 c-128 57 -314 142 -414 187 -101 45 -183 85 -183 89 -1 78 -24
370 -35 441 -51 342 -145 591 -304 807 -25 35 -48 63 -51 62 -3 0 -32 -24 -65
-54z"/>
</g>
</svg>
