<?xml version="1.0" standalone="no"?><!DOCTYPE svg PUBLIC "-//W3C//DTD SVG 1.1//EN" "http://www.w3.org/Graphics/SVG/1.1/DTD/svg11.dtd"><svg t="1501662805959" class="icon" style="" viewBox="0 0 1025 1024" version="1.1" xmlns="http://www.w3.org/2000/svg" p-id="5052" xmlns:xlink="http://www.w3.org/1999/xlink" width="200.1953125" height="200"><defs><style type="text/css"></style></defs><path d="M827.713409 523.315531c-17.501007-11.048424-37.124864-19.998007-58.829555-26.850751-4.573831-1.530613-7.81713-2.667068-9.721893-3.431374-1.902762-0.762305-4.197681-2.186876-6.852744-4.283715-2.671069-2.09884-3.535416-4.481794-2.569029-7.144861 0.958384-2.665067 1.806723-6.470591 2.569029-11.420573 17.124857-43.793535 17.124857-77.687105 0-101.678711-17.531019-23.229301-46.648678-34.847953-87.410999-34.847953-40.746314 0-87.587069 11.2385-140.514261 33.703495l-3.437376 1.144458c-2.270909 0.762305-4.84594 1.420569-7.697082 1.996799-2.863146 0.576231-5.626253 0.666267-8.289319 0.288115-2.657064-0.376151-4.563827-1.708684-5.708286-3.9956-1.144458-2.286916-0.94838-6.09444 0.57423-11.426575 17.128858-55.22211 13.327336-95.014043-11.430577-119.391803-28.177282-28.179283-75.112074-29.511816-140.810379-3.9956-65.680298 25.522219-130.704333 70.45621-195.070104 134.821981-48.743516 48.743516-86.352575 97.871187-112.819172 147.379009C13.227296 563.697699 0 610.334372 0 654.139911c0 41.124466 12.376956 79.111676 37.124864 113.96363 24.759914 34.851954 57.408986 63.601465 97.971227 86.258537 40.552237 22.649068 86.350574 40.370164 137.379005 53.127272 51.030432 12.749105 103.397399 19.13166 157.092899 19.13166 53.6975 0 105.202122-5.896361 154.513866-17.701087 49.311744-11.810729 92.352977-27.607054 129.093688-47.414985 36.756717-19.795926 68.841564-42.170885 96.25654-67.122875 27.428982-24.943987 48.175289-51.016426 62.272933-78.261335 14.091642-27.2229 21.144466-53.791538 21.144466-79.677902 0-24.369757-6.462588-46.566645-19.425778-66.554648C860.48453 549.874164 845.242427 534.357952 827.713409 523.315531zM641.220739 785.262412c-55.790338 45.124067-126.150509 72.066855-211.070511 80.824361-55.602263 5.334136-107.873191 1.334534-156.804783-11.994803-48.933593-13.339341-88.63949-34.085648-119.101687-62.266931-30.466198-28.191288-47.412984-60.564249-50.840356-97.126889-5.336137-55.598261 19.897967-105.958425 75.688305-151.086494 55.790338-45.138073 126.150509-72.07886 211.072511-80.836366 55.602263-5.338137 107.86919-1.332534 156.792778 11.996803 48.929591 13.327336 88.643492 34.081646 119.111691 62.260929 30.4702 28.189287 47.408982 60.562249 50.832353 97.118885C722.227173 689.760174 697.011077 740.120337 641.220739 785.262412z" p-id="5053"></path><path d="M446.716861 548.471603c-40.364161-10.286118-80.448211-6.656665-120.244145 10.858348-39.799936 17.515013-68.641483 43.973607-86.542651 79.399791-17.899167 36.166481-19.141664 71.874778-3.715488 107.100882 15.426176 35.228105 43.50742 59.311748 84.257736 72.270937 42.268924 13.701486 84.928004 11.420573 127.957233-6.86875 43.03323-18.28132 73.113274-46.846757 90.266142-85.682306 17.124857-38.091251 16.650667-74.359773-1.438576-108.829574C519.157866 582.269135 488.985785 559.516025 446.716861 548.471603zM385.592388 733.553708c-8.379355 12.941182-20.278119 21.992806-35.710298 27.128862-15.422175 5.148061-29.617859 4.66987-42.55904-1.42457-12.945183-6.09444-21.132461-15.708289-24.559834-28.853553-3.429373-13.127256-0.954382-26.162475 7.422972-39.117662 7.9932-12.577036 19.421776-21.32854 34.271722-26.272519 14.857949-4.951983 28.755513-4.765908 41.704698 0.568228 13.329337 5.704284 21.90477 15.2341 25.712295 28.557434C395.680427 707.467263 393.58959 720.598521 385.592388 733.553708zM439.283885 664.418027c-2.663066 4.957985-6.856745 8.483397-12.565031 10.578235-5.712287 2.09684-11.2385 2.184875-16.566633 0.288115-11.420573-5.340138-13.895564-13.897564-7.424973-25.704292 2.665067-4.957985 6.758706-8.475393 12.276916-10.578235 5.518209-2.094839 10.944382-2.184875 16.278518-0.280112 4.949982 1.894759 8.281316 5.428173 10.000004 10.570232C442.995371 654.422024 442.333106 659.48205 439.283885 664.418027z" p-id="5054"></path><path d="M816.292836 413.933735c4.205684 8.189279 10.668271 13.803527 19.43178 16.852748 8.76551 2.665067 17.226897 1.906763 25.416176-2.286916 8.189279-4.183675 13.809529-10.658267 16.85875-19.421776 7.228894-21.320537 8.475393-43.701498 3.69748-67.116873-4.751903-23.417376-15.130058-44.08165-31.112457-61.980817-15.994404-17.901167-35.242111-30.374162-57.701103-37.422984-22.470997-7.044821-45.13007-8.089239-67.971215-3.139257-9.153665 1.906763-16.194484 6.764709-21.150468 14.569834-4.94398 7.803124-6.462588 16.278518-4.551823 25.416176 1.520609 9.14166 6.272511 16.186481 14.26171 21.136463 8.005205 4.949982 16.570635 6.472592 25.718297 4.573831 23.999609-4.951983 44.35576 1.714687 61.124474 19.992005 16.762712 18.275317 21.320537 39.41178 13.709489 63.407388C811.334851 397.271064 812.109161 405.746457 816.292836 413.933735z" p-id="5055"></path><path d="M1018.241694 313.961707c-9.721893-48.169287-31.134466-90.538251-64.267732-127.094888-33.137268-36.934788-72.741125-62.547043-118.837581-76.836765-46.074448-14.283719-92.523045-16.470595-139.377806-6.570631-10.668271 2.286916-18.953589 7.901164-24.855952 16.854748-5.902363 8.955586-7.711087 18.75751-5.416169 29.42178 2.280913 10.66427 7.983196 18.945586 17.136861 24.847949 9.127655 5.902363 19.035622 7.713088 29.689888 5.426173 33.139269-6.850743 66.08646-5.230094 98.831571 4.857945 32.755115 10.092041 60.938399 28.27132 84.553855 54.549841 23.603451 25.898369 38.851556 55.978413 45.7063 90.258139 6.860747 34.269721 4.957985 67.022835-5.710286 98.249338-3.041218 10.288119-2.094839 20.188083 2.863146 29.709896 4.94398 9.519812 12.557028 15.990402 22.841145 19.421776 10.286118 3.419369 20.186082 2.663066 29.703893-2.286916 9.523813-4.949982 16.000406-12.565031 19.43178-22.849149C1025.382554 408.12541 1027.949581 362.138997 1018.241694 313.961707z" p-id="5056"></path></svg>