<?xml version="1.0" standalone="no"?><!DOCTYPE svg PUBLIC "-//W3C//DTD SVG 1.1//EN" "http://www.w3.org/Graphics/SVG/1.1/DTD/svg11.dtd"><svg t="1501743146648" class="icon" style="" viewBox="0 0 1024 1024" version="1.1" xmlns="http://www.w3.org/2000/svg" p-id="4488" xmlns:xlink="http://www.w3.org/1999/xlink" width="200" height="200"><defs><style type="text/css"></style></defs><path d="M879.384576 88.486912l-85.35552 20.399104-426.40384 101.936128h-1.671168v500.260864c-20.457472-8.076288-43.373568-12.739584-67.718144-12.739584-84.6592 0-153.293824 55.000064-153.293824 122.881024 0 67.879936 68.634624 122.903552 153.293824 122.903552 83.800064 0 151.808-53.956608 153.15456-120.920064h0.150528V340.491264l342.488064-81.769472v300.077056c-20.445184-8.11008-43.372544-12.786688-67.705856-12.786688-84.6592 0-153.2928 55.047168-153.2928 122.928128 0 67.867648 68.6336 122.88 153.2928 122.88 83.812352 0 151.820288-53.966848 153.178112-120.907776h0.139264V170.233856h0.022528V88.41728l-0.278528 0.069632z" p-id="4489"></path></svg>