<?xml version="1.0" standalone="no"?><!DOCTYPE svg PUBLIC "-//W3C//DTD SVG 1.1//EN" "http://www.w3.org/Graphics/SVG/1.1/DTD/svg11.dtd"><svg t="1502693862038" class="icon" style="" viewBox="0 0 1024 1024" version="1.1" xmlns="http://www.w3.org/2000/svg" p-id="3052" xmlns:xlink="http://www.w3.org/1999/xlink" width="200" height="200"><defs><style type="text/css"></style></defs><path d="M875.998 259.999l-128.79 0-67.21-112L343.999 147.999l-67.197 112L148 259.999c-28 0-84 28-84 83.125l0 448.874c0 46.37 42 84 78.162 84l735.586 0c36.75 0 82.25-39.38 82.25-83.13L959.998 343.999C959.998 315.999 931.998 259.999 875.998 259.999zM903.998 792.873c0 11.045-17.91 26.495-26.25 27.125L142.327 819.998c-6.482-0.52-22.327-13.15-22.327-28L120 343.124c0-17.747 23.83-26.688 28-27.125l128.802 0 31.705 0 16.313-27.207L375.704 204l274.434 0 49.985 84.82 15.395 27.18 31.69 0 128.79 0c19.74 0 27.73 25.785 28 28L903.998 792.873 903.998 792.873zM511.999 343.999c-108.252 0-196 87.745-196 196 0 108.25 87.747 196 196 196 108.255 0 196-87.75 196-196C707.998 431.744 620.253 343.999 511.999 343.999zM511.999 679.998c-77.19 0-140-62.81-140-140 0-77.192 62.81-140 140-140 77.19 0 140 62.807 140 140C651.998 617.188 589.188 679.998 511.999 679.998z" p-id="3053"></path></svg>