<?xml version="1.0" standalone="no"?><!DOCTYPE svg PUBLIC "-//W3C//DTD SVG 1.1//EN" "http://www.w3.org/Graphics/SVG/1.1/DTD/svg11.dtd"><svg t="1503383159268" class="icon" style="" viewBox="0 0 1024 1024" version="1.1" xmlns="http://www.w3.org/2000/svg" p-id="2500" xmlns:xlink="http://www.w3.org/1999/xlink" width="200" height="200"><defs><style type="text/css"></style></defs><path d="M909.529 344.052c-21.731-51.38-52.836-97.518-92.45-137.131-11.715-11.716-30.711-11.716-42.426 0-11.716 11.716-11.716 30.711 0 42.427C844.81 319.504 883.447 412.783 883.447 512c0 99.217-38.638 192.495-108.794 262.652-70.157 70.157-163.436 108.795-262.652 108.795-99.219 0-192.497-38.638-262.653-108.795C179.19 704.495 140.553 611.217 140.553 512c0-99.217 38.638-192.496 108.795-262.653 11.716-11.716 11.716-30.711 0-42.427s-30.711-11.716-42.427 0c-39.613 39.614-70.719 85.751-92.45 137.131C91.965 397.262 80.553 453.768 80.553 512c0 58.231 11.412 114.737 33.918 167.947 21.731 51.38 52.837 97.518 92.45 137.131 39.613 39.614 85.751 70.72 137.131 92.451 53.211 22.507 109.717 33.918 167.949 33.918 58.231 0 114.737-11.411 167.947-33.918 51.38-21.731 97.518-52.837 137.131-92.451 39.614-39.613 70.719-85.751 92.45-137.131 22.507-53.21 33.918-109.716 33.918-167.947 0-58.232-11.411-114.738-33.918-167.948zM512.001 542c16.568 0 30-13.432 30-30V110.553c0-16.568-13.432-30-30-30s-30 13.432-30 30V512c0 16.568 13.432 30 30 30z" p-id="2501"></path></svg>