<?xml version="1.0" standalone="no"?><!DOCTYPE svg PUBLIC "-//W3C//DTD SVG 1.1//EN" "http://www.w3.org/Graphics/SVG/1.1/DTD/svg11.dtd"><svg t="1501825597859" class="icon" style="" viewBox="0 0 1024 1024" version="1.1" xmlns="http://www.w3.org/2000/svg" p-id="2373" xmlns:xlink="http://www.w3.org/1999/xlink" width="200" height="200"><defs><style type="text/css"></style></defs><path d="M512.325632 244.698112c-245.825536 0-450.658304 289.71008-450.658304 289.71008S184.579072 824.117248 512.325632 824.117248 962.983936 534.408192 962.983936 534.408192 758.150144 244.698112 512.325632 244.698112zM512.325632 708.212736c-124.484608 0-225.329152-77.802496-225.329152-173.804544 0-96.00512 100.844544-173.83936 225.329152-173.83936 124.422144 0 225.329152 77.83424 225.329152 173.83936C737.654784 630.411264 636.747776 708.212736 512.325632 708.212736zM512.325632 418.536448c-62.242816 0-112.664576 51.868672-112.664576 115.871744 0 64.001024 50.422784 115.868672 112.664576 115.868672 62.240768 0 112.663552-51.867648 112.663552-115.868672C624.989184 470.40512 574.5664 418.536448 512.325632 418.536448z" p-id="2374"></path></svg>