<?xml version="1.0" standalone="no"?><!DOCTYPE svg PUBLIC "-//W3C//DTD SVG 1.1//EN" "http://www.w3.org/Graphics/SVG/1.1/DTD/svg11.dtd"><svg t="1502691298429" class="icon" style="" viewBox="0 0 3926 1024" version="1.1" xmlns="http://www.w3.org/2000/svg" p-id="2362" xmlns:xlink="http://www.w3.org/1999/xlink" width="766.796875" height="200"><defs><style type="text/css"></style></defs><path d="M3038.759 606.307c-8.259 18.761-30.839 27.544-50.315 19.525-19.525-7.924-28.642-29.55-20.384-48.263 10.313-23.392 15.563-48.358 15.563-74.137 0-105.023-89.031-190.521-198.493-190.521-109.414 0-198.445 85.497-198.445 190.521 0 105.070 89.031 190.616 198.445 190.616 14.655 0 29.501-1.625 44.013-4.775 20.67-4.488 41.197 8.021 45.876 27.879 4.678 19.859-8.354 39.575-29.024 44.062-20.049 4.296-40.529 6.492-60.865 6.492-151.757 0-275.207-118.532-275.207-264.275 0-145.695 123.449-264.18 275.207-264.18 151.806 0 275.255 118.485 275.255 264.18 0 35.707-7.257 70.317-21.625 102.875zM1962.659 767.707c-151.806 0-275.303-118.532-275.303-264.275 0-145.695 123.497-264.18 275.303-264.18 151.806 0 275.254 118.485 275.254 264.18 0 145.743-123.449 264.275-275.254 264.275zM1962.659 312.912c-109.462 0-198.54 85.497-198.54 190.521 0 105.070 89.078 190.616 198.54 190.616 109.463 0 198.54-85.546 198.54-190.616 0-105.023-89.078-190.521-198.54-190.521zM1140.236 767.707c-151.806 0-275.255-118.532-275.255-264.275 0-145.695 123.449-264.18 275.255-264.18 151.71 0 275.159 118.485 275.159 264.18 0 145.743-123.449 264.275-275.159 264.275zM1140.236 312.912c-109.462 0-198.493 85.497-198.493 190.521 0 105.070 89.031 190.616 198.493 190.616 109.414 0 198.397-85.546 198.397-190.616 0-105.023-88.983-190.521-198.397-190.521z" p-id="2363"></path></svg>