<?xml version="1.0" standalone="no"?><!DOCTYPE svg PUBLIC "-//W3C//DTD SVG 1.1//EN" "http://www.w3.org/Graphics/SVG/1.1/DTD/svg11.dtd"><svg t="1501825624628" class="icon" style="" viewBox="0 0 1024 1024" version="1.1" xmlns="http://www.w3.org/2000/svg" p-id="3035" xmlns:xlink="http://www.w3.org/1999/xlink" width="200" height="200"><defs><style type="text/css"></style></defs><path d="M803.040562 793.929044 687.137833 793.929044c0.892323 0.577145 1.352811 0.881067 1.352811 0.881067-282.5901 0-489.846444 107.511619-489.846444 107.511619l0-80.633459 0-26.879184c0.066515-1.00898 0.25685-1.847068 0.331551-2.844791-76.78992-9.688663-136.4016-74.506924-136.4016-153.923672L62.574151 278.770098c0-86.09689 69.794599-155.88842 155.88842-155.88842l584.580039 0c86.09689 0 155.88842 69.791529 155.88842 155.88842l0 359.27155C958.927959 724.133422 889.137453 793.929044 803.040562 793.929044zM323.19796 411.516448c-32.284287 0-58.458413 25.62768-58.458413 57.241702s26.173103 57.238632 58.458413 57.238632 58.458413-25.623587 58.458413-57.238632S355.482247 411.516448 323.19796 411.516448zM525.364379 411.516448c-31.614022 0-57.238632 25.62768-57.238632 57.241702s25.623587 57.238632 57.238632 57.238632 57.241702-25.623587 57.241702-57.238632S556.978401 411.516448 525.364379 411.516448zM727.531821 411.516448c-32.284287 0-58.458413 25.62768-58.458413 57.241702s26.174126 57.238632 58.458413 57.238632c32.284287 0 58.458413-25.623587 58.458413-57.238632S759.816109 411.516448 727.531821 411.516448z" p-id="3036"></path></svg>