<?xml version="1.0" standalone="no"?><!DOCTYPE svg PUBLIC "-//W3C//DTD SVG 1.1//EN" "http://www.w3.org/Graphics/SVG/1.1/DTD/svg11.dtd"><svg t="1501074871515" class="icon" style="" viewBox="0 0 1024 1024" version="1.1" xmlns="http://www.w3.org/2000/svg" p-id="6455" xmlns:xlink="http://www.w3.org/1999/xlink" width="200" height="200"><defs><style type="text/css"></style></defs><path d="M757.76 384V227.84C757.76 101.98 655.739 0 529.894 0h-25.548C378.476 0 276.48 102.006 276.48 227.84V384h51.2V238.08c0-103.209 83.676-186.88 186.875-186.88h5.125c103.22 0 186.88 83.645 186.88 186.88V384h51.2z m148.48 128v120.279c0 216.34-175.36 391.721-391.639 391.721h-5.202c-216.294 0-391.639-175.36-391.639-391.721V512h51.2v117.76C168.96 819.2 322.545 972.8 512 972.8c189.496 0 343.04-153.585 343.04-343.04V512h51.2z m-788.48-51.2h788.48V512H117.76v-51.2z m296.96 209.92c0-56.55 45.834-102.4 102.4-102.4 56.556 0 102.4 45.83 102.4 102.4v92.16c0 56.55-45.834 102.4-102.4 102.4-56.556 0-102.4-45.83-102.4-102.4v-92.16z m51.2 0.046v92.068c0 28.36 22.922 51.246 51.2 51.246 28.283 0 51.2-22.943 51.2-51.246V670.77c0-28.365-22.922-51.251-51.2-51.251-28.283 0-51.2 22.943-51.2 51.246z" fill="#333333" p-id="6456"></path></svg>