<?xml version="1.0" standalone="no"?><!DOCTYPE svg PUBLIC "-//W3C//DTD SVG 1.1//EN" "http://www.w3.org/Graphics/SVG/1.1/DTD/svg11.dtd"><svg t="1501074754415" class="icon" style="" viewBox="0 0 1024 1024" version="1.1" xmlns="http://www.w3.org/2000/svg" p-id="5685" xmlns:xlink="http://www.w3.org/1999/xlink" width="200" height="200"><defs><style type="text/css"></style></defs><path d="M599.377558 958.454168 424.620395 958.454168c-165.80528 0-296.769031 0-296.769031-86.024236L127.851365 855.251691c0-161.188122 133.11474-292.257274 296.769031-292.257274l174.756139 0c163.619498 0 296.769031 131.101897 296.769031 292.257274l0 17.178241C896.145565 958.454168 758.588653 958.454168 599.377558 958.454168L599.377558 958.454168 599.377558 958.454168zM422.988222 611.472526c-137.625474 0-249.607918 109.935832-249.607918 245.098207l0 17.491373c0 35.046191 144.254451 35.046191 249.607918 35.046191l177.98467 0c87.207178 0 249.644757 0 249.644757-35.046191l0-17.491373c0-135.162376-112.017236-245.098207-249.644757-245.098207L422.988222 611.472526 422.988222 611.472526 422.988222 611.472526zM503.254314 527.947204c-129.923048 0-235.554854-104.140849-235.554854-232.119615 0-128.015605 105.631806-232.119615 235.554854-232.119615 129.923048 0 235.553831 104.104009 235.553831 232.119615C738.808144 423.806355 633.107777 527.947204 503.254314 527.947204L503.254314 527.947204 503.254314 527.947204zM316.246129 295.097972c0 101.224426 83.909062 183.571922 187.008184 183.571922 103.132892 0 187.041954-82.347496 187.041954-183.571922 0-101.190657-83.909062-183.502337-187.041954-183.502337C400.120398 111.595634 316.246129 193.907315 316.246129 295.097972L316.246129 295.097972 316.246129 295.097972zM316.246129 312.864614" p-id="5686"></path></svg>