<?xml version="1.0" standalone="no"?><!DOCTYPE svg PUBLIC "-//W3C//DTD SVG 1.1//EN" "http://www.w3.org/Graphics/SVG/1.1/DTD/svg11.dtd"><svg t="1501661418616" class="icon" style="" viewBox="0 0 1024 1024" version="1.1" xmlns="http://www.w3.org/2000/svg" p-id="4374" xmlns:xlink="http://www.w3.org/1999/xlink" width="200" height="200"><defs><style type="text/css"></style></defs><path d="M693.118 347.264c11.775 0 23.36 0.895 35.01 2.175-31.36-146.047-187.46-254.527-365.697-254.527C163.2 94.912 0 230.654 0 403.134c0 99.52 54.272 181.25 145.025 244.734L108.8 756.863l126.72-63.49c45.312 8.895 81.665 18.115 126.912 18.115 11.392 0 22.655-0.515 33.792-1.345-7.04-24.255-11.2-49.6-11.2-76.035C385.086 475.774 521.024 347.264 693.118 347.264zM498.304 249.024c27.39 0 45.375 17.982 45.375 45.247 0 27.135-17.985 45.312-45.375 45.312-27.072 0-54.337-18.177-54.337-45.312C443.966 266.944 471.166 249.024 498.304 249.024zM244.672 339.584c-27.2 0-54.592-18.177-54.592-45.312 0-27.265 27.392-45.247 54.592-45.247s45.247 17.92 45.247 45.247C289.919 321.407 271.872 339.584 244.672 339.584zM1023.997 629.758c0-144.895-145.025-262.974-307.904-262.974-172.48 0-308.222 118.142-308.222 262.974 0 145.28 135.807 262.974 308.222 262.974 36.095 0 72.515-9.025 108.735-18.11l99.395 54.525-27.265-90.62C969.728 783.868 1023.997 711.488 1023.997 629.758zM616.128 584.384c-17.985 0-36.225-17.92-36.225-36.225 0-18.05 18.24-36.225 36.225-36.225 27.52 0 45.375 18.175 45.375 36.225C661.503 566.464 643.648 584.384 616.128 584.384zM815.488 584.384c-17.86 0-36.035-17.92-36.035-36.225 0-18.05 18.115-36.225 36.035-36.225 27.26 0 45.375 18.175 45.375 36.225C860.863 566.464 842.748 584.384 815.488 584.384z" p-id="4375"></path></svg>